<?xml version="1.0" standalone="no"?>
<!DOCTYPE svg PUBLIC "-//W3C//DTD SVG 20010904//EN"
 "http://www.w3.org/TR/2001/REC-SVG-20010904/DTD/svg10.dtd">
<svg version="1.0" xmlns="http://www.w3.org/2000/svg"
 width="528.000000pt" height="528.000000pt" viewBox="0 0 528.000000 528.000000"
 preserveAspectRatio="xMidYMid meet">
<metadata>
Created by potrace 1.14, written by Peter Selinger 2001-2017
</metadata>
<g transform="translate(0.000000,528.000000) scale(0.100000,-0.100000)"
fill="#000000" stroke="none">
<path d="M1990 5005 l0 -245 665 0 665 0 0 245 0 245 -665 0 -665 0 0 -245z"/>
<path d="M998 4793 c-17 -18 -28 -33 -23 -33 6 0 -134 -144 -310 -320 -176
-176 -324 -320 -330 -320 -5 0 69 80 165 178 96 97 44 47 -116 -112 -161 -159
-291 -295 -290 -303 3 -20 344 -360 361 -360 8 0 27 14 42 31 l28 31 -35 -30
c-49 -43 451 472 694 715 l206 205 -173 175 -172 175 180 -175 180 -175 -173
176 c-96 97 -180 176 -187 176 -8 0 -29 -15 -47 -34z m42 24 c0 -2 -15 -16
-32 -33 l-33 -29 29 33 c28 30 36 37 36 29z m-710 -700 c0 -1 -53 -54 -117
-117 l-118 -115 115 118 c107 109 120 122 120 114z m-50 -412 c96 -96 173
-175 170 -175 -3 0 -84 79 -180 175 -96 96 -173 175 -170 175 3 0 84 -79 180
-175z"/>
<path d="M4079 4651 l-174 -176 180 175 180 175 -172 -175 -173 -175 206 -205
c243 -243 743 -758 694 -715 l-35 30 28 -31 c15 -17 34 -31 42 -31 7 0 94 81
192 180 98 99 172 177 166 173 -8 -5 -13 -1 -13 9 0 10 5 14 13 9 6 -3 -118
125 -278 285 -159 160 -292 291 -295 291 -3 0 76 -81 175 -180 99 -99 175
-180 170 -180 -14 0 -647 634 -641 641 8 7 -60 72 -78 75 -7 1 -92 -78 -187
-175z m231 134 c19 -19 32 -35 29 -35 -3 0 -20 16 -39 35 -19 19 -32 35 -29
35 3 0 20 -16 39 -35z m890 -882 c0 -8 -13 5 -110 105 l-105 107 108 -105 c59
-57 107 -106 107 -107z m0 -36 c0 -1 -78 -79 -172 -172 l-173 -170 170 173
c158 160 175 177 175 169z"/>
<path d="M1935 4711 c-147 -45 -296 -109 -435 -184 l-105 -56 -440 -448 c-242
-246 -432 -441 -422 -433 12 8 -2 -28 -36 -95 -121 -241 -189 -457 -234 -745
-25 -160 -25 -510 0 -670 49 -310 143 -593 278 -833 379 -673 1009 -1106 1779
-1224 160 -24 510 -24 670 0 770 118 1400 551 1779 1224 135 240 229 523 278
833 25 160 24 508 -1 675 -37 247 -108 476 -217 704 -32 68 -59 125 -59 128 0
2 6 1 13 -3 6 -5 -186 193 -428 439 l-440 447 -110 59 c-126 68 -255 123 -417
178 l-113 38 -610 2 -610 2 -120 -38z m1023 -679 c333 -73 598 -217 838 -456
239 -239 384 -506 454 -837 31 -145 39 -410 16 -565 -157 -1069 -1277 -1707
-2271 -1294 -739 308 -1153 1097 -984 1878 137 631 630 1127 1259 1266 158 34
159 34 390 31 160 -2 226 -8 298 -23z"/>
<path d="M3160 2949 c-388 -215 -715 -396 -728 -403 -22 -12 -16 -19 194 -264
119 -139 220 -252 224 -252 4 0 204 255 446 567 241 312 470 607 507 655 38
48 67 88 65 88 -2 0 -320 -176 -708 -391z"/>
</g>
</svg>
