<?xml version="1.0" standalone="no"?>
<!DOCTYPE svg PUBLIC "-//W3C//DTD SVG 20010904//EN"
 "http://www.w3.org/TR/2001/REC-SVG-20010904/DTD/svg10.dtd">
<svg version="1.0" xmlns="http://www.w3.org/2000/svg"
 width="439.000000pt" height="439.000000pt" viewBox="0 0 439.000000 439.000000"
 preserveAspectRatio="xMidYMid meet">
<metadata>
Created by potrace 1.14, written by Peter Selinger 2001-2017
</metadata>
<g transform="translate(0.000000,439.000000) scale(0.100000,-0.100000)"
fill="#000000" stroke="none">
<path d="M1650 4160 l0 -210 48 -1 47 0 -55 -15 c-115 -30 -270 -90 -395 -154
l-130 -67 -150 149 -150 148 -395 -395 -395 -395 147 -147 148 -148 55 55 c30
30 55 52 55 48 0 -3 -16 -35 -36 -70 -156 -274 -244 -619 -244 -960 0 -986
721 -1831 1695 -1983 87 -14 154 -16 363 -12 228 4 270 8 368 30 313 71 604
210 844 404 100 81 270 258 348 363 454 608 526 1428 183 2095 -31 60 -58 114
-60 120 -2 5 19 -11 46 -37 27 -27 51 -48 54 -48 3 0 72 66 153 146 l148 147
-394 394 -394 394 -149 -150 -150 -151 -145 73 c-131 66 -367 155 -423 159
-12 0 1 4 28 7 l50 6 3 208 2 207 -560 0 -560 0 0 -210z m817 -815 c496 -111
876 -454 1032 -931 86 -263 84 -587 -4 -850 -163 -488 -570 -840 -1075 -930
-126 -22 -344 -22 -470 0 -576 103 -1030 558 -1125 1130 -19 114 -22 328 -5
431 96 601 540 1053 1140 1161 102 18 408 12 507 -11z"/>
<path d="M2621 2440 c-327 -181 -599 -334 -603 -338 -9 -9 337 -422 351 -422
4 0 174 215 377 477 203 263 393 508 422 545 29 37 52 68 50 68 -2 0 -270
-149 -597 -330z"/>
</g>
</svg>
